# xmcd
#
# Track frame offsets: 
#        150
#        13418
#        23497
#        32994
#        38356
#        50839
#        65954
#        76764
#        90076
#        105338
#        117984
#        131457
#        145120
#        156396
#        172714
#        187144
#        199132
#        210104
#        224168
#        236303
#        249571
#        265776
#        280351
#
# Disc length: 3877 seconds
#
# Revision: 0
# Processed by: cddbd v1.5.2PL0 Copyright (c) Steve Scherf et al.
# Submitted via: ExactAudioCopy v0.99pb5
#
DISCID=3e0f2317
DTITLE=Геннадий Перевалов - Осенний город, Старый паровоз
DYEAR=1985
DGENRE=Chanson
TTITLE0=Узелок на память
TTITLE1=Творчество
TTITLE2=Бродяги мы с тобой...
TTITLE3=Розы пахнут в мае...
TTITLE4=Мистер Блюз
TTITLE5=Если листья по воде...
TTITLE6=Сосны
TTITLE7=Шопен
TTITLE8=Осенний город
TTITLE9=Мальчишки
TTITLE10=Ещё один подъем
TTITLE11=Узелок на память (реприза)
TTITLE12=Старый паровоз
TTITLE13=Пора домой...
TTITLE14=Питер Брейгель
TTITLE15=Бродяги мы с тобой...
TTITLE16=Вальс
TTITLE17=Когда Адам...
TTITLE18=Фигурные конечки
TTITLE19=Памяти Л. Утесова
TTITLE20=Песня о военном музыканте
TTITLE21=Завтра
TTITLE22=Старый паровоз (реприза)
EXTD=
EXTT0=
EXTT1=
EXTT2=
EXTT3=
EXTT4=
EXTT5=
EXTT6=
EXTT7=
EXTT8=
EXTT9=
EXTT10=
EXTT11=
EXTT12=
EXTT13=
EXTT14=
EXTT15=
EXTT16=
EXTT17=
EXTT18=
EXTT19=
EXTT20=
EXTT21=
EXTT22=
PLAYORDER=
